<?xml version="1.0" standalone="no"?>
<!DOCTYPE svg PUBLIC "-//W3C//DTD SVG 20010904//EN"
 "http://www.w3.org/TR/2001/REC-SVG-20010904/DTD/svg10.dtd">
<svg version="1.0" xmlns="http://www.w3.org/2000/svg"
 width="260.000000pt" height="260.000000pt" viewBox="0 0 260.000000 260.000000"
 preserveAspectRatio="xMidYMid meet">
<metadata>
Created by potrace 1.11, written by Peter Selinger 2001-2013
</metadata>
<g transform="translate(0.000000,260.000000) scale(0.100000,-0.100000)"
fill="#000000" stroke="none">
<path d="M150 2056 c0 -27 6 -35 38 -49 64 -29 94 -93 161 -347 87 -330 113
-428 137 -515 14 -49 27 -97 29 -105 1 -8 14 -58 28 -110 14 -52 49 -180 76
-285 28 -104 57 -209 63 -232 l12 -43 102 0 101 0 81 283 c155 542 314 1092
317 1096 2 1 8 -14 13 -35 19 -74 294 -1189 297 -1204 3 -18 24 -97 31 -123 5
-16 16 -17 97 -15 l91 3 12 40 c21 69 464 1379 473 1400 5 11 20 45 34 75 27
61 64 102 108 122 23 10 29 19 29 44 l0 31 -245 1 -245 0 0 -34 c0 -29 4 -34
33 -39 42 -8 74 -36 90 -77 25 -65 5 -177 -83 -453 -43 -134 -231 -735 -243
-775 -5 -19 -11 -30 -13 -25 -2 6 -39 168 -83 360 -100 438 -190 826 -236
1021 -4 19 -12 21 -104 22 -66 1 -103 -3 -109 -11 -5 -7 -96 -318 -202 -692
-106 -374 -196 -684 -200 -688 -5 -5 -15 22 -24 60 -9 37 -41 165 -71 283
-213 825 -222 869 -179 927 12 17 39 34 67 43 44 15 64 43 48 68 -3 6 -116 9
-268 10 l-263 0 0 -32z"/>
</g>
</svg>
